<svg xmlns="http://www.w3.org/2000/svg" viewBox="-6 -6 2326 367" width="2326" height="367"><path fill="#050505" fill-rule="evenodd" d="M1615.75,262.50L1615.50,263.00L1615.50,351.50L1615.75,351.75L1646.75,351.75L1651.75,350.75L1653.25,350.75L1655.75,349.75L1656.75,349.75L1661.00,347.75L1661.75,347.75L1663.00,346.75L1663.75,346.75L1670.50,342.25L1677.75,335.00L1682.25,328.25L1682.25,327.50L1683.25,326.25L1683.25,325.50L1684.25,324.00L1684.25,323.25L1685.00,322.00L1685.25,320.25L1686.00,318.75L1687.25,312.00L1687.00,300.75L1685.00,292.50L1681.25,284.50L1677.00,278.50L1671.50,273.00L1668.00,270.25L1666.75,269.75L1664.75,268.25L1660.50,266.00L1659.00,265.75L1658.50,265.25L1650.50,263.00L1644.75,262.75L1644.50,262.50ZM1622.25,268.50L1644.75,268.50L1649.50,269.00L1651.50,269.75L1653.75,270.00L1655.00,270.75L1656.00,270.75L1662.50,274.00L1666.50,276.75L1671.50,281.50L1676.25,288.00L1679.50,295.00L1679.50,296.00L1680.50,298.50L1680.50,300.00L1681.25,303.00L1681.25,311.50L1680.25,317.00L1679.50,318.50L1679.25,320.25L1678.50,321.25L1678.50,322.25L1677.50,323.50L1677.50,324.25L1674.50,329.25L1672.50,331.75L1667.50,336.75L1661.50,341.00L1654.75,344.00L1653.75,344.00L1651.25,345.00L1649.75,345.00L1646.50,345.75L1622.00,345.75L1621.50,345.25L1621.50,269.25ZM1397.25,262.50L1396.75,263.00L1396.75,268.25L1397.00,268.50L1431.50,268.50L1432.25,269.25L1432.25,351.25L1432.75,351.75L1437.75,351.75L1438.25,351.00L1438.00,350.75L1438.00,269.25L1438.75,268.50L1472.25,268.50L1472.50,268.75L1473.25,268.25L1473.25,263.00L1473.00,262.50ZM1303.50,262.50L1303.00,263.00L1303.00,351.50L1303.50,351.75L1308.75,351.75L1309.25,351.00L1309.00,350.75L1309.00,317.75L1309.75,317.00L1331.00,317.00L1331.50,317.25L1334.50,320.75L1334.75,321.50L1350.50,341.50L1351.50,343.25L1357.75,351.25L1358.50,351.75L1365.25,351.75L1365.75,351.50L1338.25,315.75L1338.50,314.75L1342.75,312.75L1344.50,311.50L1349.25,307.00L1351.25,304.25L1354.00,298.25L1355.00,293.50L1355.00,286.00L1354.00,281.50L1353.50,281.00L1353.25,279.50L1351.25,275.50L1349.25,272.75L1343.00,267.00L1339.50,265.00L1334.75,263.25L1329.50,262.50ZM1309.75,268.50L1332.00,268.75L1335.50,269.75L1337.00,270.75L1337.75,270.75L1340.75,272.75L1344.75,276.75L1346.25,279.00L1348.50,284.00L1349.25,290.75L1348.50,295.50L1347.50,297.50L1347.50,298.25L1345.50,301.75L1341.75,306.00L1337.25,309.00L1335.00,310.00L1334.00,310.00L1331.25,311.00L1309.75,311.00L1309.00,310.25L1309.00,269.25ZM1112.75,263.25L1107.25,262.50L1082.50,262.50L1082.00,263.00L1082.00,351.50L1082.50,351.75L1087.75,351.75L1088.25,351.00L1088.00,350.75L1088.00,317.50L1088.75,316.75L1110.50,316.75L1115.75,315.25L1121.00,312.50L1126.00,308.00L1128.00,305.50L1131.25,299.00L1131.25,298.00L1132.25,295.25L1132.50,287.00L1132.25,284.50L1131.25,280.75L1129.25,276.25L1126.25,272.00L1120.75,267.00L1115.00,264.00L1114.00,264.00ZM1088.75,268.50L1107.25,268.50L1110.75,269.00L1112.25,269.75L1113.75,270.00L1117.25,272.00L1119.50,273.75L1122.50,277.00L1124.50,280.25L1126.25,285.00L1126.50,293.25L1125.50,296.00L1125.50,297.00L1123.50,301.00L1120.75,304.50L1117.00,307.75L1112.50,310.00L1107.25,311.00L1088.75,311.00L1088.00,310.25L1088.00,269.25ZM901.25,262.50L900.75,263.00L900.75,350.75L900.50,351.00L901.00,351.75L906.75,351.75L907.25,351.00L907.00,350.75L907.00,263.00L906.50,262.50ZM1767.25,262.00L1758.50,264.00L1750.00,268.00L1743.25,273.00L1738.75,277.50L1736.25,280.75L1733.25,286.00L1732.50,286.75L1732.25,288.00L1730.50,291.50L1730.50,292.25L1729.50,294.50L1729.50,295.75L1728.75,297.50L1728.00,303.00L1728.00,311.75L1728.50,313.75L1728.50,316.00L1729.25,317.75L1729.50,320.00L1730.50,322.00L1730.50,323.00L1734.50,331.25L1739.25,337.50L1743.25,341.50L1747.00,344.50L1754.25,348.75L1755.50,349.00L1756.00,349.50L1759.25,350.75L1760.50,350.75L1763.00,351.75L1764.50,351.75L1765.75,352.25L1769.50,352.75L1779.50,352.50L1784.75,351.50L1786.25,350.75L1787.25,350.75L1789.25,349.75L1790.00,349.75L1797.75,345.75L1804.25,340.75L1810.25,334.00L1813.25,329.25L1815.25,325.25L1818.00,316.50L1818.75,310.75L1818.75,304.00L1818.25,299.25L1817.25,296.00L1817.25,294.75L1816.25,292.75L1816.25,291.75L1812.25,283.50L1807.00,276.50L1800.00,270.25L1797.00,268.25L1796.00,268.00L1795.25,267.25L1790.75,265.00L1789.25,264.75L1788.00,264.00L1787.00,264.00L1785.75,263.25L1783.25,263.00L1781.50,262.25L1776.50,262.00L1776.25,261.75ZM1769.50,267.75L1777.25,267.75L1783.00,268.75L1789.25,271.00L1792.75,272.75L1797.50,276.00L1803.50,281.75L1807.25,287.00L1810.25,293.00L1810.75,295.25L1811.50,296.50L1811.50,297.75L1812.50,301.00L1812.75,310.50L1811.50,317.75L1810.50,320.00L1810.50,320.75L1809.50,322.50L1809.50,323.25L1805.50,330.25L1799.25,337.00L1794.00,341.00L1791.75,342.00L1790.50,343.00L1789.75,343.00L1785.50,345.00L1777.00,346.75L1769.75,346.75L1766.50,346.00L1764.75,346.00L1762.25,345.00L1761.25,345.00L1756.25,343.00L1750.75,339.75L1748.25,337.75L1743.25,332.75L1739.25,327.25L1736.50,321.75L1736.00,319.50L1735.50,319.00L1735.25,317.00L1734.25,314.00L1734.00,308.00L1733.75,307.75L1734.00,303.25L1735.25,296.25L1736.00,295.00L1736.25,293.25L1739.25,287.25L1743.00,282.00L1748.25,276.75L1753.50,273.00L1760.50,269.75L1761.50,269.75L1763.75,268.75ZM1206.50,262.00L1202.75,263.00L1201.25,263.00L1199.00,264.00L1198.00,264.00L1189.50,268.00L1183.25,272.50L1176.75,279.25L1171.50,287.75L1168.50,296.25L1167.50,301.75L1167.50,306.50L1167.25,306.75L1167.50,312.75L1169.50,321.75L1173.75,330.75L1178.25,337.00L1183.00,341.75L1189.50,346.50L1195.50,349.50L1202.50,351.75L1209.25,352.75L1219.00,352.50L1221.75,351.75L1223.25,351.75L1225.75,350.75L1227.50,350.50L1228.00,350.00L1229.50,349.75L1236.00,346.50L1241.75,342.50L1244.50,340.00L1250.25,333.25L1253.25,328.25L1253.25,327.50L1254.25,326.25L1254.25,325.50L1255.25,323.75L1255.25,323.00L1256.25,321.00L1256.25,320.00L1257.25,317.50L1257.25,315.75L1257.75,314.50L1258.25,310.25L1258.00,301.75L1257.25,298.50L1257.25,297.00L1256.50,295.25L1256.00,292.50L1255.50,292.00L1255.00,290.00L1252.00,284.00L1247.50,277.75L1244.50,274.50L1240.50,271.00L1236.00,268.00L1232.25,266.00L1224.25,263.00L1223.00,263.00L1219.25,262.00L1216.25,262.00L1216.00,261.75ZM1209.25,267.75L1216.50,267.75L1221.00,268.75L1222.50,268.75L1228.00,270.75L1232.50,273.00L1237.00,276.00L1242.50,281.25L1245.25,284.75L1247.25,288.00L1250.50,295.00L1250.50,296.25L1251.50,298.75L1251.50,301.00L1252.00,302.00L1252.25,304.00L1252.00,312.50L1250.50,319.25L1249.75,320.50L1249.50,322.00L1248.50,323.50L1248.50,324.25L1247.50,325.50L1247.50,326.25L1242.50,333.25L1238.75,337.00L1231.75,342.00L1231.00,342.00L1229.75,343.00L1229.00,343.00L1227.75,344.00L1226.75,344.00L1225.00,345.00L1223.00,345.25L1221.25,346.00L1219.25,346.00L1218.25,346.50L1216.25,346.75L1209.50,346.75L1204.25,346.00L1201.75,345.00L1200.50,345.00L1191.75,340.75L1186.25,336.50L1181.25,331.00L1179.25,328.25L1179.00,327.25L1177.25,324.50L1174.25,316.50L1174.25,314.75L1173.75,313.75L1173.25,309.75L1173.50,302.00L1174.00,300.75L1174.25,298.00L1175.25,295.50L1175.25,294.50L1176.25,292.75L1176.25,292.00L1177.25,289.75L1178.25,288.50L1179.25,286.25L1182.00,282.50L1188.00,276.50L1191.75,273.75L1192.25,273.75L1195.25,271.75L1198.75,270.50L1199.75,269.75L1201.75,269.50L1203.25,268.75ZM1536.00,261.25L1535.50,261.50L1534.50,263.75L1534.50,264.50L1533.50,266.25L1533.50,267.00L1532.50,268.75L1532.50,269.50L1531.50,271.25L1531.50,272.00L1530.50,273.75L1530.50,274.50L1529.50,276.25L1528.50,279.50L1526.75,283.00L1526.25,285.00L1525.75,285.50L1524.25,290.00L1523.75,290.50L1522.25,295.00L1521.75,295.50L1520.25,300.00L1518.75,303.00L1518.25,305.00L1516.50,308.50L1516.50,309.25L1515.50,311.00L1515.50,311.75L1514.50,313.50L1514.50,314.25L1513.50,316.00L1513.50,316.75L1512.50,318.50L1512.50,319.25L1511.50,321.00L1511.50,321.75L1510.50,323.50L1510.50,324.25L1509.50,326.00L1509.50,326.75L1508.50,328.50L1507.50,331.75L1506.50,333.50L1505.25,337.25L1504.50,338.25L1504.25,339.75L1502.50,343.25L1502.25,344.75L1500.50,348.25L1500.25,349.75L1499.50,350.75L1499.50,351.75L1500.00,352.25L1503.25,353.00L1505.00,353.00L1506.25,350.25L1506.25,349.50L1507.25,347.75L1507.25,347.00L1508.25,345.50L1509.50,341.50L1511.25,338.00L1511.25,337.25L1513.00,333.75L1513.50,331.75L1515.25,328.25L1515.25,327.50L1516.25,325.75L1517.25,322.50L1519.25,318.50L1519.25,317.50L1520.00,316.75L1551.00,316.75L1551.50,317.00L1552.50,318.50L1552.50,319.25L1554.50,323.25L1554.50,324.00L1555.25,325.00L1555.50,326.25L1556.50,328.00L1556.50,328.75L1557.25,329.75L1557.50,331.00L1558.50,332.75L1558.50,333.50L1559.50,335.00L1559.50,335.75L1560.50,337.50L1560.75,338.75L1562.50,342.25L1566.75,352.75L1568.50,352.75L1572.25,351.50L1572.25,350.25L1571.50,349.25L1570.25,345.50L1569.25,343.75L1569.25,343.00L1568.25,341.25L1568.25,340.50L1567.25,338.75L1566.25,335.50L1564.50,332.00L1563.00,327.50L1562.50,327.00L1562.25,325.75L1561.25,324.00L1561.25,323.25L1560.25,321.50L1560.25,320.75L1559.25,319.00L1559.25,318.25L1558.25,316.50L1558.25,315.75L1557.50,314.75L1557.25,313.25L1555.50,309.75L1555.25,308.25L1553.25,304.25L1553.25,303.50L1552.25,301.75L1552.25,301.00L1551.25,299.25L1550.25,296.00L1549.25,294.25L1548.00,290.50L1547.50,290.00L1547.00,288.00L1545.25,284.50L1545.25,283.75L1544.25,282.00L1544.25,281.25L1543.25,279.50L1543.25,278.75L1542.25,277.00L1542.25,276.25L1540.50,272.75L1540.25,271.25L1539.50,270.25L1538.25,266.25L1537.25,264.75L1537.25,264.00ZM1535.75,276.00L1536.50,276.50L1536.75,278.00L1537.50,279.25L1537.50,280.25L1538.50,282.00L1538.50,283.00L1540.50,287.50L1540.75,289.25L1541.50,290.25L1541.50,291.25L1542.50,293.00L1543.75,297.25L1544.50,298.25L1544.50,299.25L1545.50,301.00L1546.50,304.50L1547.50,306.25L1547.50,307.25L1548.25,308.50L1549.00,311.25L1548.50,311.75L1523.50,311.75L1523.25,312.00L1522.25,311.25L1522.25,310.50L1523.25,308.75L1524.50,304.50L1525.25,303.50L1525.50,302.00L1526.25,300.75L1527.50,296.75L1528.00,296.25L1528.25,294.75L1530.25,290.25L1531.25,286.75L1532.25,285.00L1532.50,283.50L1533.25,282.50L1533.25,281.50L1534.25,279.75L1535.25,276.50ZM1034.00,261.25L1033.50,261.50L1032.50,263.25L1029.75,266.25L1028.25,268.50L996.25,308.00L995.50,308.00L965.25,270.50L962.50,267.50L962.00,266.50L958.50,262.50L958.25,261.75L957.50,261.50L957.25,262.00L957.25,351.25L957.75,351.75L963.00,351.75L963.25,351.50L963.25,279.00L963.75,278.50L964.50,279.00L964.75,279.75L995.75,318.00L998.25,315.50L1026.00,280.75L1027.75,279.00L1028.50,279.50L1028.25,280.25L1028.25,351.25L1028.75,351.75L1034.00,351.75L1034.25,351.50L1034.25,261.50ZM85.00,75.50L84.50,76.25L84.00,76.25L84.00,226.00L85.25,227.00L169.25,227.00L170.50,226.00L170.50,220.00L169.50,219.25L106.50,219.25L105.25,218.00L105.25,153.50L106.75,152.50L155.25,152.50L155.50,152.75L157.00,151.50L157.00,146.00L155.75,144.75L106.50,144.75L105.25,143.75L105.25,84.25L106.50,83.25L169.25,83.25L170.50,82.25L170.50,76.25L170.00,76.25L169.00,75.25L168.50,75.50L86.00,75.50L85.75,75.25ZM1760.75,5.25L1759.75,6.25L1759.75,12.50L1760.75,13.25L1819.75,13.25L1821.00,14.75L1821.00,173.25L1822.25,174.75L1843.50,174.75L1844.50,173.50L1844.25,14.50L1845.75,13.25L1904.75,13.25L1906.00,12.25L1906.00,7.00L1904.75,5.75L1828.25,5.50L1828.00,5.25ZM1408.00,5.25L1406.50,7.50L1406.50,8.50L1405.75,9.75L1405.25,12.00L1404.75,12.50L1404.50,14.25L1403.50,16.00L1403.50,17.00L1401.50,21.75L1401.50,22.75L1400.75,24.00L1400.25,26.25L1399.75,26.75L1399.50,28.50L1398.50,30.25L1398.25,32.00L1397.75,32.50L1397.25,34.75L1396.50,36.00L1396.50,37.00L1394.50,41.75L1394.25,43.25L1393.75,43.75L1393.50,45.50L1392.50,47.25L1392.50,48.25L1391.75,49.50L1391.50,51.00L1389.50,55.75L1389.50,56.75L1388.50,58.50L1388.25,60.25L1387.50,61.25L1387.50,62.25L1386.75,63.50L1386.50,65.00L1384.50,69.75L1384.50,70.75L1383.50,72.50L1383.25,74.25L1382.50,75.25L1382.50,76.25L1380.50,81.00L1380.50,82.00L1379.50,83.75L1379.50,84.75L1378.50,86.75L1378.25,88.25L1377.75,88.75L1377.50,90.50L1376.50,92.25L1376.50,93.25L1375.75,94.50L1375.50,96.00L1373.50,100.75L1373.50,101.75L1372.50,103.50L1372.50,104.50L1371.75,105.75L1371.25,108.00L1370.75,108.50L1370.25,110.75L1369.50,112.00L1369.50,113.00L1367.50,117.75L1367.25,119.25L1366.75,119.75L1366.50,121.50L1365.75,122.50L1365.50,124.25L1364.75,125.50L1364.50,127.00L1362.50,131.75L1362.50,132.75L1361.50,134.50L1361.25,136.25L1360.50,137.25L1360.25,139.00L1359.75,139.50L1359.50,141.00L1358.50,143.00L1358.50,144.00L1357.50,145.75L1357.50,146.75L1356.75,148.00L1356.25,150.25L1355.75,150.75L1355.25,153.00L1354.75,153.50L1354.50,155.25L1353.50,157.00L1353.50,158.00L1351.50,162.75L1351.25,164.25L1350.75,164.75L1350.50,166.50L1349.50,168.25L1349.50,169.25L1348.75,170.50L1348.00,173.50L1349.00,174.75L1356.00,174.75L1357.25,173.50L1357.25,172.75L1359.25,168.00L1359.25,167.00L1361.25,162.25L1361.25,161.25L1362.00,160.25L1362.25,158.50L1363.25,156.75L1363.25,155.75L1365.25,151.00L1365.25,150.00L1366.25,148.25L1366.50,146.50L1367.00,146.00L1367.50,143.75L1368.00,143.25L1368.50,141.00L1369.25,139.75L1369.25,138.75L1371.25,134.00L1371.50,132.50L1372.00,132.00L1372.50,129.50L1373.25,128.50L1373.25,127.50L1375.25,122.75L1375.25,121.75L1376.25,120.00L1376.25,119.00L1377.25,117.00L1377.50,115.50L1378.00,115.00L1378.25,113.25L1379.25,111.50L1379.50,109.75L1380.00,109.25L1381.75,103.75L1382.75,102.50L1383.50,102.00L1438.50,102.00L1440.50,104.00L1440.50,105.00L1441.50,107.00L1441.50,108.00L1442.50,110.00L1442.50,111.00L1443.50,113.00L1443.50,114.00L1444.50,116.00L1444.50,117.00L1445.50,118.75L1445.50,119.75L1446.50,121.75L1446.50,122.75L1447.50,124.75L1447.50,125.75L1448.50,127.75L1448.50,128.75L1449.50,130.50L1449.50,131.50L1450.25,132.75L1451.75,138.25L1452.50,139.25L1452.50,140.25L1453.25,141.50L1453.50,143.25L1454.50,145.25L1454.50,146.25L1455.50,148.00L1455.50,149.00L1456.50,151.00L1456.50,152.00L1458.50,156.75L1458.50,157.75L1459.50,159.75L1459.75,161.25L1460.25,161.75L1460.75,164.25L1461.25,164.75L1461.75,167.00L1462.50,168.25L1462.75,170.00L1463.25,170.50L1463.50,172.00L1464.50,174.25L1465.25,174.75L1488.00,174.75L1489.00,173.50L1488.25,170.25L1487.25,168.50L1487.25,167.50L1485.25,162.75L1485.25,161.75L1484.25,160.00L1484.25,159.00L1483.25,157.00L1483.00,155.50L1482.50,155.00L1482.25,153.25L1481.50,152.00L1481.00,149.75L1480.50,149.25L1480.25,147.50L1478.25,142.75L1478.25,141.75L1476.25,137.00L1476.25,136.00L1475.50,134.75L1475.00,132.50L1474.50,132.00L1474.00,129.50L1473.25,128.50L1473.25,127.50L1472.50,126.25L1472.00,123.75L1471.50,123.25L1471.25,121.75L1470.25,119.75L1470.25,118.75L1468.25,114.00L1468.25,113.00L1466.25,108.25L1466.00,106.50L1465.50,106.00L1465.00,103.75L1464.50,103.25L1464.00,100.75L1463.50,100.25L1463.25,98.75L1462.25,96.75L1462.25,95.75L1460.25,91.00L1460.25,90.00L1459.25,88.00L1459.00,86.50L1458.50,86.00L1458.25,84.25L1457.25,82.25L1457.25,81.25L1456.25,79.50L1456.25,78.50L1455.50,77.25L1455.00,74.75L1454.50,74.25L1454.25,72.75L1453.25,70.75L1453.25,69.75L1451.25,65.00L1451.25,64.00L1450.25,62.00L1450.25,61.00L1449.25,59.25L1449.25,58.25L1448.50,57.00L1448.00,54.50L1447.50,54.00L1447.00,51.75L1446.50,51.25L1446.00,48.75L1445.50,48.25L1445.00,46.00L1444.25,44.75L1444.25,43.75L1443.25,41.75L1443.25,40.75L1442.25,39.00L1442.25,38.00L1441.25,36.00L1441.25,35.00L1440.25,33.00L1440.00,31.50L1439.50,31.00L1439.25,29.25L1438.50,28.00L1438.25,26.25L1437.50,25.25L1437.25,23.50L1436.50,22.25L1436.25,20.50L1435.25,18.75L1435.25,17.75L1434.25,15.75L1434.25,14.75L1432.25,10.00L1432.25,9.00L1431.25,7.00L1431.25,6.25L1430.00,5.25ZM1410.75,24.25L1412.00,24.25L1413.25,26.50L1413.50,28.00L1414.50,30.00L1414.50,31.00L1417.50,38.75L1417.50,39.75L1418.50,41.50L1418.50,42.50L1419.50,44.50L1419.75,46.25L1420.25,46.75L1420.75,49.00L1421.50,50.25L1421.75,52.00L1422.25,52.50L1422.75,54.75L1423.50,56.00L1423.50,57.00L1424.50,59.00L1424.50,60.00L1426.50,64.75L1426.50,65.75L1427.50,67.75L1427.75,69.25L1428.25,69.75L1429.75,75.25L1430.50,76.25L1430.50,77.25L1431.25,78.50L1431.75,81.00L1432.25,81.50L1432.50,83.00L1433.50,85.00L1433.50,86.00L1434.50,88.00L1434.50,89.00L1435.50,90.75L1435.50,92.50L1434.50,93.50L1387.75,93.50L1387.00,93.25L1386.25,92.25L1388.25,87.00L1388.25,86.00L1389.00,84.75L1389.50,82.50L1390.00,82.00L1390.25,80.25L1391.25,78.50L1391.50,76.75L1392.00,76.25L1392.25,74.75L1393.25,72.75L1393.25,71.75L1394.25,70.00L1394.25,69.00L1395.25,67.00L1395.50,65.50L1396.00,65.00L1396.25,63.25L1397.25,61.50L1397.50,59.75L1398.00,59.25L1398.50,57.00L1399.25,55.75L1399.25,54.75L1401.25,50.00L1401.50,48.50L1402.00,48.00L1402.50,45.50L1403.25,44.50L1403.25,43.50L1405.25,38.75L1405.25,37.75L1407.25,33.00L1407.25,32.00L1408.25,30.25L1408.50,28.50L1409.00,28.00L1409.25,26.50L1410.00,25.00ZM1176.25,5.50L1175.50,6.50L1175.50,145.75L1175.25,146.00L1175.25,173.25L1175.50,173.75L1176.75,174.75L1197.75,174.75L1198.75,173.50L1198.75,92.25L1199.75,90.75L1203.00,90.75L1205.00,92.75L1210.75,100.50L1222.50,115.25L1225.25,118.25L1225.75,119.25L1247.75,145.25L1262.50,162.00L1273.75,172.75L1280.75,177.75L1284.75,179.75L1285.75,179.75L1288.25,180.75L1290.75,181.00L1312.50,181.00L1313.00,180.75L1313.75,179.50L1313.75,178.25L1313.25,177.25L1312.00,176.75L1310.25,176.75L1307.75,176.00L1306.50,176.00L1301.50,173.75L1296.25,170.00L1291.25,165.00L1286.25,159.00L1262.25,126.75L1235.50,92.50L1235.75,91.50L1236.75,90.75L1244.00,90.50L1254.00,89.50L1255.50,89.00L1260.00,88.50L1262.25,87.75L1263.50,87.75L1265.25,87.00L1267.50,86.75L1269.50,85.75L1270.50,85.75L1275.00,83.75L1275.75,83.75L1283.00,79.75L1288.00,75.75L1291.25,72.25L1293.25,69.50L1296.25,63.50L1296.25,62.75L1297.25,60.75L1297.50,58.50L1298.00,57.75L1298.75,52.00L1298.75,44.00L1298.00,38.25L1296.00,32.00L1294.00,28.00L1292.00,25.00L1287.75,20.25L1280.75,15.00L1274.75,12.00L1269.50,10.00L1268.50,10.00L1266.25,9.00L1264.25,8.75L1262.50,8.00L1261.00,8.00L1259.00,7.25L1255.50,7.00L1254.25,6.50L1250.50,6.00L1240.75,5.50L1240.50,5.25L1176.75,5.25ZM1200.00,14.00L1235.25,14.00L1240.50,14.75L1243.25,14.75L1252.75,17.00L1253.75,17.75L1255.25,18.00L1260.75,20.75L1263.50,22.75L1268.50,27.75L1271.50,32.75L1273.25,37.75L1274.25,43.25L1274.25,52.50L1273.25,58.25L1272.50,59.50L1272.50,60.50L1271.50,62.25L1271.50,63.00L1268.50,68.00L1264.00,72.75L1261.00,75.00L1258.75,76.00L1257.50,77.00L1256.75,77.00L1252.50,79.00L1251.50,79.00L1249.00,80.00L1247.75,80.00L1245.75,80.75L1234.75,82.00L1200.25,82.00L1198.75,80.25L1198.75,15.50ZM950.75,5.25L950.00,6.50L950.00,12.25L951.00,13.25L1009.75,13.25L1011.25,14.75L1011.25,173.50L1012.25,174.75L1033.75,174.75L1034.75,173.25L1034.50,14.25L1036.00,13.25L1094.75,13.25L1096.25,12.25L1096.25,7.25L1094.75,5.75L1018.50,5.50L1018.25,5.25ZM759.25,5.25L758.50,6.00L758.50,7.00L762.50,13.75L762.50,14.25L763.50,15.50L764.50,18.00L765.25,18.75L767.75,23.75L768.50,24.50L768.50,25.25L769.25,26.00L769.50,27.00L773.50,33.75L773.50,34.25L774.50,35.50L775.50,38.00L776.25,38.75L777.75,42.00L779.50,44.50L779.50,45.25L780.50,46.50L780.50,47.00L784.50,53.75L784.75,54.75L785.50,55.50L785.50,56.25L786.25,57.00L788.75,62.00L789.50,62.75L790.50,65.25L791.50,66.50L791.50,67.00L795.50,73.75L795.50,74.25L796.50,75.50L796.75,76.50L800.50,82.75L800.50,83.25L807.50,95.00L807.50,96.75L800.50,107.50L800.25,108.50L796.50,114.00L796.50,114.50L794.50,117.25L793.25,119.75L790.75,123.25L790.50,124.25L789.50,125.25L788.25,127.75L787.50,128.50L787.50,129.00L783.50,135.00L783.50,135.50L782.50,136.50L782.25,137.50L772.75,152.25L772.50,153.25L769.50,157.50L769.50,158.00L765.50,164.00L765.50,164.50L764.50,165.50L764.25,166.50L760.50,172.00L760.25,172.75L760.50,174.25L761.00,174.75L769.25,174.75L770.25,173.75L775.25,166.25L775.50,165.25L777.25,163.00L777.25,162.50L778.25,161.50L784.25,151.50L785.00,150.75L786.25,148.25L787.25,147.25L787.50,146.25L797.00,131.50L797.25,130.50L800.25,126.25L800.50,125.25L801.25,124.50L804.50,118.75L805.25,118.00L805.25,117.50L807.25,114.75L807.25,114.25L810.25,109.75L811.25,107.50L812.75,106.50L814.25,107.25L814.50,108.25L815.50,109.50L815.50,110.25L816.25,111.00L816.50,112.00L817.50,113.25L820.50,119.25L821.50,120.50L821.50,121.25L822.25,122.00L822.50,123.00L823.50,124.25L826.50,130.25L827.50,131.50L827.50,132.25L828.25,133.00L828.50,134.00L829.50,135.25L832.50,141.25L833.50,142.50L833.50,143.25L834.25,144.00L834.50,145.00L838.50,151.75L838.75,152.75L839.50,153.50L839.50,154.25L840.25,155.00L840.50,156.00L844.50,162.75L844.75,163.75L845.50,164.50L845.50,165.25L846.25,166.00L846.50,167.00L850.50,174.00L851.25,174.75L875.00,174.75L875.50,174.50L876.25,173.50L876.25,172.50L875.25,171.25L875.25,170.50L874.50,169.75L871.00,162.75L870.25,162.00L869.25,159.50L868.25,158.25L868.25,157.50L867.50,156.75L867.25,155.75L863.25,149.00L863.00,148.00L862.25,147.25L862.25,146.50L861.25,145.25L858.00,138.75L857.25,138.00L856.25,135.50L855.25,134.25L855.25,133.50L853.25,130.50L850.00,124.00L849.25,123.25L849.25,122.50L848.50,121.75L848.25,120.75L844.25,114.00L844.00,113.00L843.25,112.25L843.25,111.50L842.50,110.75L842.25,109.75L841.25,108.50L838.25,102.50L837.25,101.25L837.00,100.25L832.25,92.25L832.00,91.25L827.50,83.75L827.50,82.75L829.00,80.50L829.25,79.50L832.25,75.25L832.50,74.25L833.25,73.50L837.50,66.00L838.25,65.25L838.25,64.75L840.25,62.00L840.25,61.50L841.00,60.75L842.50,57.75L843.25,57.00L843.25,56.50L845.25,53.75L846.25,51.50L849.25,47.25L849.50,46.25L850.25,45.50L854.50,38.00L855.25,37.25L855.25,36.75L857.25,34.00L857.25,33.50L858.00,32.75L859.50,29.75L860.25,29.00L860.25,28.50L862.25,25.75L863.25,23.50L865.25,20.75L865.25,20.25L866.25,19.25L866.50,18.25L867.25,17.50L868.50,15.00L869.25,14.25L869.50,13.25L873.00,8.00L873.25,6.25L872.25,5.25L863.75,5.25L862.50,6.50L862.25,7.50L854.50,19.50L854.25,20.50L851.50,24.50L851.50,25.00L850.75,25.75L841.25,42.00L840.50,42.75L840.50,43.25L839.75,44.00L838.25,47.00L837.50,47.75L837.50,48.25L836.75,49.00L835.25,52.00L834.50,52.75L834.50,53.25L833.75,54.00L831.25,58.75L827.50,64.50L827.50,65.25L824.50,69.75L824.25,70.75L823.25,72.00L822.00,72.25L820.50,70.75L817.25,65.00L817.25,64.50L816.25,63.25L816.25,62.50L815.50,61.75L815.25,60.75L814.50,60.00L812.00,55.00L811.25,54.25L811.25,53.50L810.50,52.75L808.00,47.75L806.25,45.25L806.25,44.50L805.25,43.25L805.25,42.75L801.50,36.50L801.25,35.50L800.25,34.25L800.00,33.25L795.25,25.25L795.25,24.50L794.50,23.75L794.25,22.75L793.50,22.00L791.00,17.00L790.25,16.25L790.25,15.50L789.50,14.75L787.00,9.75L785.25,7.25L785.25,6.50L783.75,5.25ZM589.75,5.25L588.75,6.25L588.75,172.75L588.50,173.00L589.00,174.00L589.75,174.75L684.00,174.75L685.25,173.00L685.00,172.75L685.00,167.00L684.00,166.00L613.75,166.00L612.25,164.50L612.25,92.50L613.75,91.50L669.00,91.50L670.00,90.50L670.00,83.75L669.75,83.25L668.75,82.75L613.75,82.75L612.25,81.50L612.25,15.25L613.50,14.00L683.75,14.00L685.00,13.00L685.00,6.25L684.00,5.25ZM1625.25,4.00L1623.25,4.75L1620.50,5.00L1618.75,5.75L1616.50,6.00L1614.25,7.00L1613.00,7.00L1611.75,7.75L1610.25,8.00L1605.75,10.00L1605.00,10.00L1603.50,11.00L1602.75,11.00L1596.75,14.00L1589.75,18.25L1581.00,25.25L1576.50,29.75L1571.75,35.25L1571.50,36.00L1568.75,39.50L1564.50,46.50L1564.50,47.25L1563.50,48.50L1563.50,49.25L1562.50,50.50L1562.50,51.25L1561.50,53.00L1561.25,54.25L1560.50,55.25L1560.50,56.00L1559.50,58.00L1559.50,59.00L1557.75,63.50L1557.50,65.75L1556.50,68.75L1556.25,71.50L1555.50,73.75L1555.50,76.25L1555.00,78.25L1554.75,83.50L1554.50,83.75L1554.50,96.00L1555.75,106.75L1556.50,108.75L1556.50,110.50L1557.25,112.50L1557.50,114.50L1558.50,117.00L1558.50,118.00L1559.50,120.00L1559.50,121.00L1560.50,122.75L1560.75,124.25L1561.25,124.75L1561.50,126.00L1562.50,127.50L1562.50,128.25L1563.75,130.75L1564.50,131.50L1564.50,132.25L1569.75,140.75L1574.75,147.25L1581.25,154.00L1587.75,159.50L1594.00,163.75L1596.50,165.00L1597.25,165.75L1598.25,166.00L1599.00,166.75L1599.75,166.75L1601.00,167.75L1601.75,167.75L1603.00,168.75L1603.75,168.75L1605.25,169.75L1606.00,169.75L1610.25,171.75L1611.25,171.75L1613.25,172.75L1614.25,172.75L1619.25,174.50L1622.75,175.00L1625.00,175.75L1626.75,175.75L1632.00,176.75L1640.25,177.00L1640.50,177.25L1652.50,176.75L1657.50,175.75L1659.50,175.75L1661.50,175.00L1664.00,174.75L1666.50,173.75L1667.75,173.75L1669.00,173.00L1670.75,172.75L1675.25,170.75L1676.00,170.75L1684.00,166.75L1690.25,162.75L1698.75,155.75L1703.25,151.00L1707.50,145.75L1707.75,145.00L1707.25,143.50L1706.75,143.00L1705.25,143.00L1699.00,149.00L1691.25,154.75L1688.25,156.25L1687.50,157.00L1683.50,159.00L1682.75,159.00L1678.50,161.00L1672.00,163.00L1670.50,163.00L1667.25,164.00L1660.50,164.75L1650.75,164.75L1646.50,164.00L1644.25,164.00L1642.00,163.25L1639.50,163.00L1636.75,162.00L1635.75,162.00L1625.25,158.00L1619.25,154.75L1618.50,154.00L1618.00,154.00L1613.25,150.75L1608.25,146.75L1602.25,141.00L1594.25,131.25L1589.25,123.00L1589.00,122.00L1588.25,121.25L1588.25,120.50L1586.25,116.75L1583.25,109.00L1583.25,108.00L1582.25,105.75L1582.25,104.75L1581.50,103.00L1581.25,100.75L1580.25,97.50L1578.75,85.00L1578.75,73.25L1579.00,73.00L1579.25,67.50L1580.00,64.50L1580.25,61.50L1581.25,58.50L1581.25,57.25L1582.25,54.75L1582.25,53.75L1583.25,51.75L1584.50,47.75L1587.75,41.25L1589.25,39.25L1589.50,38.25L1595.25,30.75L1600.25,25.75L1608.25,19.75L1608.75,19.75L1609.50,19.00L1610.50,18.75L1611.25,18.00L1615.75,15.75L1616.50,15.75L1617.50,15.00L1619.00,14.75L1620.75,13.75L1621.75,13.75L1624.00,12.75L1625.25,12.75L1628.00,11.75L1629.75,11.75L1634.50,10.75L1643.25,10.50L1643.50,10.75L1652.00,11.00L1662.50,12.75L1669.75,15.00L1670.75,15.75L1671.50,15.75L1677.50,18.75L1684.00,23.50L1691.00,30.75L1694.25,35.25L1698.50,42.75L1699.25,43.00L1700.75,42.75L1701.75,42.00L1702.25,41.25L1702.25,39.75L1696.25,29.75L1690.25,22.50L1685.50,18.00L1681.75,15.00L1676.25,11.75L1675.50,11.00L1671.50,9.00L1670.25,8.75L1666.75,7.00L1665.75,7.00L1664.50,6.25L1662.75,6.00L1660.25,5.00L1659.00,5.00L1655.75,4.00L1654.00,4.00L1648.25,3.00L1634.25,3.00L1627.50,4.00ZM2018.25,2.00L2016.25,2.75L2013.75,3.00L2011.00,4.00L2009.75,4.00L2007.50,5.00L2006.50,5.00L2002.25,6.75L2000.75,7.00L1994.75,10.00L1994.00,10.00L1992.75,11.00L1991.75,11.25L1987.50,14.00L1987.00,14.00L1981.25,18.00L1975.00,23.25L1967.50,31.25L1961.50,39.50L1961.25,40.50L1960.50,41.25L1956.50,48.75L1956.25,50.00L1954.50,53.50L1954.50,54.25L1953.50,56.00L1953.50,57.00L1952.50,59.00L1952.50,60.00L1951.50,62.25L1951.50,63.50L1950.50,66.25L1950.25,68.75L1949.50,70.75L1949.25,74.50L1948.75,76.00L1948.25,85.00L1948.00,85.25L1948.25,97.25L1949.75,108.75L1950.50,110.75L1950.75,113.25L1951.50,114.75L1951.50,116.00L1954.75,125.25L1956.50,128.50L1956.50,129.25L1957.50,130.50L1957.50,131.25L1958.50,132.50L1958.50,133.25L1959.25,134.00L1963.50,141.25L1966.75,145.50L1970.25,149.50L1979.00,157.75L1983.00,160.75L1988.75,164.50L1989.75,164.75L1990.50,165.50L1999.00,169.75L2000.50,170.00L2001.00,170.50L2002.50,170.75L2004.25,171.75L2005.25,171.75L2007.25,172.75L2008.25,172.75L2010.75,173.75L2011.75,173.75L2014.75,174.75L2017.25,175.00L2019.25,175.75L2021.50,175.75L2026.50,176.75L2034.00,177.00L2034.25,177.25L2047.25,177.00L2054.25,176.25L2055.50,175.75L2057.50,175.75L2059.75,175.00L2062.25,174.75L2065.00,173.75L2066.25,173.75L2071.50,171.75L2072.50,171.75L2074.25,170.75L2077.50,169.75L2079.00,168.75L2079.75,168.75L2083.00,166.75L2083.75,166.75L2085.00,165.75L2087.25,164.75L2095.50,159.00L2100.50,154.75L2108.00,146.75L2112.00,141.50L2112.50,140.25L2116.00,135.00L2120.25,126.25L2122.25,121.00L2122.25,120.00L2123.25,118.00L2123.25,117.00L2124.25,114.50L2124.25,113.25L2125.25,110.25L2125.25,108.75L2126.25,105.00L2126.25,102.75L2127.00,98.75L2127.25,81.00L2126.75,76.00L2126.25,74.25L2126.25,71.75L2125.50,69.75L2125.25,67.00L2124.50,65.00L2124.00,62.00L2123.50,61.25L2123.25,59.50L2122.50,58.25L2122.25,56.50L2121.50,55.25L2121.25,53.75L2116.25,43.25L2109.00,32.50L2106.00,29.00L2097.75,21.00L2093.00,17.25L2091.75,16.75L2090.00,15.25L2085.50,12.75L2084.75,12.00L2084.00,12.00L2082.75,11.00L2082.00,11.00L2078.75,9.00L2078.00,9.00L2071.25,6.00L2070.25,6.00L2065.75,4.25L2063.50,4.00L2061.75,3.25L2059.25,3.00L2055.75,2.00L2054.00,2.00L2048.50,1.00L2040.25,0.75L2040.00,0.50L2025.50,1.00L2020.50,2.00ZM2026.25,8.75L2033.25,8.50L2033.50,8.25L2039.25,8.50L2045.25,9.25L2046.25,9.75L2048.00,9.75L2050.75,10.75L2052.00,10.75L2062.50,14.75L2067.75,17.75L2074.50,22.75L2080.50,28.75L2086.25,36.25L2089.50,41.75L2089.50,42.25L2090.50,43.50L2090.50,44.25L2093.50,50.50L2093.50,51.25L2094.25,52.50L2094.50,54.00L2095.50,56.25L2095.50,57.25L2096.50,59.50L2096.50,60.75L2097.50,63.50L2097.50,65.00L2098.25,67.00L2098.50,70.00L2099.25,72.75L2099.50,77.00L2100.25,81.25L2100.50,92.00L2100.75,92.25L2100.50,103.75L2100.25,104.00L2100.25,107.50L2099.50,112.50L2099.50,115.00L2098.50,118.75L2098.50,120.25L2097.50,123.25L2097.50,124.50L2096.50,126.75L2096.50,128.00L2092.50,137.75L2089.50,142.75L2089.50,143.25L2084.25,150.50L2079.75,155.25L2075.50,159.00L2074.75,159.25L2072.00,161.50L2070.75,162.00L2069.75,163.00L2061.50,167.00L2060.00,167.25L2059.00,168.00L2057.00,168.25L2055.50,169.00L2054.25,169.00L2051.25,170.00L2049.25,170.00L2045.25,170.75L2036.50,170.75L2032.50,170.00L2030.25,170.00L2028.00,169.25L2025.50,169.00L2023.00,168.00L2022.00,168.00L2020.00,167.00L2019.00,167.00L2017.25,166.00L2016.50,166.00L2010.00,162.75L2005.25,159.75L1999.25,155.00L1994.25,150.00L1990.25,145.25L1985.25,137.75L1984.00,135.00L1983.25,134.25L1983.25,133.50L1982.25,132.25L1982.25,131.50L1981.25,130.00L1980.25,127.75L1980.25,127.00L1979.25,125.25L1979.25,124.50L1978.50,123.25L1978.25,121.75L1977.25,119.50L1977.25,118.50L1976.25,116.25L1976.25,115.00L1975.25,112.25L1975.25,110.75L1974.50,108.75L1974.00,104.00L1973.50,102.50L1972.75,94.75L1972.50,86.00L1972.75,85.75L1972.75,80.25L1973.25,77.00L1973.25,74.00L1974.25,69.00L1974.25,66.75L1975.00,64.50L1975.50,60.75L1976.25,59.00L1976.25,57.75L1977.25,55.50L1977.25,54.25L1978.00,53.00L1978.25,51.25L1979.25,49.50L1980.25,46.25L1984.25,38.25L1985.00,37.50L1985.25,36.50L1986.25,35.50L1987.25,33.50L1992.00,27.50L1997.25,22.25L2003.00,17.75L2005.00,16.75L2006.00,15.75L2006.75,15.75L2007.50,15.00L2014.50,11.75L2015.25,11.75L2017.50,10.75L2018.50,10.75L2020.00,10.00L2022.50,9.75ZM0.00,0.00L0.00,353.75L254.50,353.75L254.50,0.00ZM5.50,5.25L248.75,5.25L249.00,5.50L249.00,348.00L248.75,348.25L5.50,348.25L5.25,348.00L5.25,5.50Z"/><path fill="#C89210" fill-rule="evenodd" d="M1911.50,298.75L1911.75,299.00L1911.75,313.75L1911.50,314.25L1912.00,314.75L1912.50,314.50L1944.00,314.25L1944.25,314.00L1959.75,314.00L1960.00,313.75L1976.50,313.75L1976.75,313.50L1992.25,313.50L1992.50,313.25L2008.00,313.25L2008.25,313.00L2023.75,313.00L2024.00,312.75L2087.25,312.00L2087.50,311.75L2104.25,311.75L2104.50,311.50L2120.00,311.50L2120.25,311.25L2151.25,311.00L2151.50,310.75L2279.00,309.00L2279.25,308.75L2311.50,308.50L2313.25,307.00L2313.25,306.00L2312.25,304.25L2202.75,302.75L2202.50,302.50L2171.50,302.25L2171.25,302.00L2154.50,302.00L2154.25,301.75L2138.75,301.75L2138.50,301.50L2107.50,301.25L2107.25,301.00L2091.00,301.00L2090.75,300.75L2075.25,300.75L2075.00,300.50L2059.50,300.50L2059.25,300.25L2043.75,300.25L2043.50,300.00L2027.00,300.00L2026.75,299.75L2011.25,299.75L2011.00,299.50L1995.50,299.50L1995.25,299.25L1979.75,299.25L1979.50,299.00L1963.25,299.00L1963.00,298.75L1915.75,298.25L1915.50,298.00L1912.00,298.00ZM798.25,298.25L798.00,298.00L794.25,298.00L794.00,298.25L778.50,298.25L778.25,298.50L762.75,298.50L762.50,298.75L747.00,298.75L746.75,299.00L730.25,299.00L730.00,299.25L683.50,299.75L683.25,300.00L666.50,300.00L666.25,300.25L650.75,300.25L650.50,300.50L619.50,300.75L619.25,301.00L603.00,301.00L602.75,301.25L587.25,301.25L587.00,301.50L571.50,301.50L571.25,301.75L555.50,301.75L555.25,302.00L539.00,302.00L538.75,302.25L397.75,304.25L397.25,305.25L397.25,307.25L397.50,308.00L398.25,308.50L430.75,308.75L431.00,309.00L558.50,310.75L558.75,311.00L622.25,311.75L622.50,312.00L638.25,312.00L638.50,312.25L654.00,312.25L654.25,312.50L669.75,312.50L670.00,312.75L686.25,312.75L686.50,313.00L702.00,313.00L702.25,313.25L733.25,313.50L733.50,313.75L750.25,313.75L750.50,314.00L766.00,314.00L766.25,314.25L781.50,314.25L781.75,314.50L797.00,314.50L798.00,314.75L798.25,314.50ZM63.50,283.00L90.25,285.25L90.50,285.50L96.25,285.75L99.25,286.25L102.00,286.25L105.00,286.75L110.75,287.00L113.75,287.50L116.50,287.50L119.50,288.00L125.25,288.25L125.50,288.50L135.00,288.00L138.00,287.50L140.75,287.50L143.75,287.00L149.50,286.75L152.50,286.25L155.25,286.25L155.50,286.00L191.00,283.00L129.50,278.00L129.25,277.75L125.25,277.75L125.00,278.00Z"/></svg>